<svg width="29" height="29" viewBox="0 0 29 29" fill="none" xmlns="http://www.w3.org/2000/svg">
<g clip-path="url(#clip0_2_94)">
<path d="M3.95637 9.73157C3.46532 9.73157 3.04868 9.90281 2.70619 10.2453C2.36371 10.5878 2.19241 10.9988 2.19241 11.4784V18.8431C2.19241 19.3348 2.36366 19.7511 2.70619 20.0936C3.04868 20.4361 3.46532 20.6074 3.95637 20.6074C4.44707 20.6074 4.86118 20.4362 5.19836 20.0936C5.53487 19.7512 5.70359 19.3348 5.70359 18.8431V11.4784C5.70359 10.9987 5.53234 10.5878 5.18981 10.2453C4.84727 9.90281 4.43604 9.73157 3.95637 9.73157Z" fill="#E1E3E9"/>
<path d="M18.138 3.12027L19.3541 0.876949C19.4339 0.728433 19.4055 0.614546 19.2687 0.534464C19.1201 0.46541 19.0059 0.500401 18.9262 0.636962L17.6931 2.89821C16.6081 2.4185 15.4605 2.1782 14.2504 2.1782C13.04 2.1782 11.8923 2.41855 10.8077 2.89821L9.57455 0.636962C9.49442 0.500401 9.38027 0.465719 9.23207 0.534464C9.09489 0.614906 9.06649 0.728433 9.14663 0.876949L10.3627 3.12027C9.12962 3.74912 8.14751 4.62492 7.41678 5.74956C6.68605 6.87483 6.32053 8.1045 6.32053 9.44074H22.163C22.163 8.10481 21.7974 6.87509 21.0667 5.74956C20.3359 4.62492 19.3595 3.74912 18.138 3.12027ZM11.1073 6.38321C10.9758 6.51503 10.8187 6.58063 10.6361 6.58063C10.4532 6.58063 10.2993 6.51503 10.1738 6.38321C10.0482 6.25201 9.98547 6.09555 9.98547 5.91235C9.98547 5.72977 10.0482 5.57301 10.1738 5.4415C10.2993 5.3103 10.4535 5.2447 10.6361 5.2447C10.8187 5.2447 10.9758 5.3103 11.1073 5.4415C11.2385 5.57332 11.3044 5.72977 11.3044 5.91235C11.304 6.09524 11.2382 6.25201 11.1073 6.38321ZM18.3263 6.38321C18.2005 6.51503 18.0463 6.58063 17.864 6.58063C17.681 6.58063 17.524 6.51503 17.3927 6.38321C17.2613 6.25201 17.1957 6.09555 17.1957 5.91235C17.1957 5.72977 17.2613 5.57301 17.3927 5.4415C17.524 5.3103 17.681 5.2447 17.864 5.2447C18.0466 5.2447 18.2004 5.3103 18.3263 5.4415C18.4519 5.57332 18.5146 5.72977 18.5146 5.91235C18.5146 6.09524 18.4519 6.25201 18.3263 6.38321Z" fill="#E1E3E9"/>
<path d="M6.38855 21.4636C6.38855 21.9894 6.57113 22.4344 6.93634 22.7996C7.30186 23.1648 7.7469 23.3474 8.27227 23.3474H9.53977L9.55713 27.2358C9.55713 27.7268 9.72838 28.1437 10.0709 28.4863C10.4133 28.8288 10.8246 29 11.304 29C11.7947 29 12.2116 28.8288 12.5542 28.4863C12.8967 28.1437 13.0679 27.7268 13.0679 27.2358V23.3478H15.4314V27.2358C15.4314 27.7268 15.6026 28.1437 15.9452 28.4863C16.2877 28.8288 16.7042 29 17.1953 29C17.6861 29 18.103 28.8288 18.4455 28.4863C18.7881 28.1437 18.9593 27.7268 18.9593 27.2358V23.3478H20.2439C20.7576 23.3478 21.1969 23.1652 21.5628 22.7999C21.9279 22.4347 22.1106 21.9897 22.1106 21.464V10.0567H6.38855V21.4636Z" fill="#E1E3E9"/>
<path d="M24.5437 9.73157C24.064 9.73157 23.653 9.90029 23.3105 10.2368C22.968 10.5739 22.7968 10.988 22.7968 11.4784V18.8431C22.7968 19.3348 22.968 19.7511 23.3105 20.0936C23.653 20.4362 24.0643 20.6074 24.5437 20.6074C25.0344 20.6074 25.4513 20.4362 25.7939 20.0936C26.1364 19.7511 26.3076 19.3348 26.3076 18.8431V11.4784C26.3076 10.988 26.1364 10.5739 25.7939 10.2368C25.4513 9.90029 25.0344 9.73157 24.5437 9.73157Z" fill="#E1E3E9"/>
</g>
<defs>
<clipPath id="clip0_2_94">
<rect width="28.5" height="28.5" fill="white" transform="translate(0 0.5)"/>
</clipPath>
</defs>
</svg>
